<svg xmlns="http://www.w3.org/2000/svg" viewBox="0 0 512 512"><rect width="512" height="512" rx="15%" fill="#2496ed"/><g fill="#fff"><rect x="116" y="206" width="52" height="52" rx="6"/><rect x="178" y="206" width="52" height="52" rx="6"/><rect x="240" y="206" width="52" height="52" rx="6"/><rect x="302" y="206" width="52" height="52" rx="6"/><rect x="178" y="144" width="52" height="52" rx="6"/><rect x="240" y="144" width="52" height="52" rx="6"/></g><path d="M104 278h328c0 70-54 116-128 116-78 0-128-40-150-86a36 36 0 0 1-50-30z" fill="#fff"/><path d="M396 214c10-16 18-6 22 2 4-10 18-8 20 4 10-2 16 6 14 16h-66c-2-14 4-24 10-22z" fill="#fff"/></svg>
